HIERARCHY
ROOT Hips
{
  OFFSET -33.9132 29.2015 117.021
  CHANNELS 6 Xposition Yposition Zposition Zrotation Xrotation Yrotation
  JOINT LeftUpLeg
  {
    OFFSET 8.64259 1.95398 -2.38835
    CHANNELS 3 Zrotation Xrotation Yrotation
    JOINT LeftLeg
    {
      OFFSET 43.7702 0 0
      CHANNELS 3 Zrotation Xrotation Yrotation
      JOINT LeftFoot
      {
        OFFSET 40.6238 0 0
        CHANNELS 3 Zrotation Xrotation Yrotation
        JOINT LeftToeBase
        {
          OFFSET 12.7242 0 0
          CHANNELS 3 Zrotation Xrotation Yrotation
          End Site
          {
            OFFSET 0 0 0
          }
        }
      }
    }
  }
  JOINT RightUpLeg
  {
    OFFSET -8.2249 1.95398 -2.59336
    CHANNELS 3 Zrotation Xrotation Yrotation
    JOINT RightLeg
    {
      OFFSET 43.5653 0 0
      CHANNELS 3 Zrotation Xrotation Yrotation
      JOINT RightFoot
      {
        OFFSET 40.6238 0 0
        CHANNELS 3 Zrotation Xrotation Yrotation
        JOINT RightToeBase
        {
          OFFSET 12.7242 0 0
          CHANNELS 3 Zrotation Xrotation Yrotation
          End Site
          {
            OFFSET 0 0 0
          }
        }
      }
    }
  }
  JOINT Spine
  {
    OFFSET 0.165834 0.87714 6.61349
    CHANNELS 3 Zrotation Xrotation Yrotation
    JOINT Spine1
    {
      OFFSET 7.38963 1.71661e-005 0
      CHANNELS 3 Zrotation Xrotation Yrotation
      JOINT Spine2
      {
        OFFSET 11.9445 1.14441e-005 0
        CHANNELS 3 Zrotation Xrotation Yrotation
        JOINT Spine3
        {
          OFFSET 14.7254 4.19617e-005 0
          CHANNELS 3 Zrotation Xrotation Yrotation
          JOINT Spine4
          {
            OFFSET 10.9679 0 0
            CHANNELS 3 Zrotation Xrotation Yrotation
            JOINT RightShoulder
            {
              OFFSET 2.46616 -1.6653 3.69651
              CHANNELS 3 Zrotation Xrotation Yrotation
              JOINT RightArm
              {
                OFFSET 13.0012 0 0
                CHANNELS 3 Zrotation Xrotation Yrotation
                JOINT RightForeArm
                {
                  OFFSET 28.7848 1.62311e-005 0
                  CHANNELS 3 Zrotation Xrotation Yrotation
                  JOINT RightHand
                  {
                    OFFSET 26.5688 1.62095e-005 0
                    CHANNELS 3 Zrotation Xrotation Yrotation
                    End Site
                    {
                      OFFSET 0 0 0
                    }
                  }
                }
              }
            }
            JOINT LeftShoulder
            {
              OFFSET 2.38034 -1.29275 -3.7523
              CHANNELS 3 Zrotation Xrotation Yrotation
              JOINT LeftArm
              {
                OFFSET 16.3182 6.07031e-005 0
                CHANNELS 3 Zrotation Xrotation Yrotation
                JOINT LeftForeArm
                {
                  OFFSET 27.0901 0 0
                  CHANNELS 3 Zrotation Xrotation Yrotation
                  JOINT LeftHand
                  {
                    OFFSET 24.5451 1.51738e-005 0
                    CHANNELS 3 Zrotation Xrotation Yrotation
                    End Site
                    {
                      OFFSET 0 0 0
                    }
                  }
                }
              }
            }
            JOINT Neck
            {
              OFFSET 5.0226 -0.0266342 0
              CHANNELS 3 Zrotation Xrotation Yrotation
              JOINT Head
              {
                OFFSET 6.69364 2.86102e-005 0
                CHANNELS 3 Zrotation Xrotation Yrotation
                End Site
                {
                  OFFSET 0 0 0
                }
              }
            }
          }
        }
      }
    }
  }
}
MOTION
Frames:	7
Frame Time:	0.0416667
-10.2486 96.3647 150.671 160.296 -77.3753 161.342 -168.612 -11.8786 95.5157 -34.2303 20.5046 -0.1335 78.9076 14.0258 1.12552 29.287 -4.23637 10.4464 175.503 12.1869 93.9419 -21.9443 -8.50626 1.78305 60.2593 1.41697 0.510567 15.8706 3.52234 6.76325 -0.664094 8.12729 -90.6063 10.6097 -1.60145 -1.06204 -1.06062 -1.64665 -0.990533 -23.5973 -1.20827 -1.49424 -3.58462 -1.20826 -1.49423 92.3542 -29.4373 -102.242 46.7828 8.36908 3.06875 -4.66153 -31.3029 -5.12566 -16.2063 2.10466 -20.5323 -88.5743 -45.6712 79.9978 -22.8281 -9.38612 -25.7456 -10.8903 28.4197 -0.0192958 5.68669 -0.703261 -17.1436 -15.2718 0.611868 -4.28013 -12.5828 0.433298 2.56702 
-9.28237 95.6787 141.342 177.022 -78.3737 174.293 -171.395 -10.1992 88.1448 -30.2889 12.3392 -2.21043 86.0366 17.2917 -2.06787 20.8917 -10.5827 12.697 175.107 15.3374 90.4663 -16.7679 -7.40664 1.16738 57.9721 1.90932 0.113428 23.1658 1.61895 3.23553 -0.303616 8.35286 -90.1146 10.1677 -0.657191 -0.17186 -1.50306 -0.664121 -0.14277 -24.0392 -0.575163 -0.361426 -4.02655 -0.575162 -0.361432 91.9169 -30.4323 -102.799 45.3943 7.72889 -1.26348 -4.88534 -35.3726 -5.22631 -17.5425 2.55196 -22.3014 -88.884 -46.0538 79.5923 -20.2918 -9.82756 -25.3655 -10.9913 29.9693 -0.0284312 5.96629 -0.584662 -15.44 -13.633 0.405327 -4.74534 -12.1197 0.352551 1.94963 
-7.90458 96.569 133.629 -168.322 -76.8429 -171.284 -173.113 -6.67761 85.3058 -29.8117 9.0058 -2.49168 83.545 15.6513 -0.514258 15.4475 -10.9838 7.5993 174.17 16.3379 89.1376 -19.9742 -2.19996 1.25757 59.8282 -0.0699765 0.367951 21.0443 1.95021 5.07922 0.0827539 8.69584 -90.0805 9.48234 0.128757 -0.170468 -2.1886 0.121136 -0.175972 -24.7238 0.174031 -0.123895 -4.71116 0.174039 -0.12389 91.2759 -29.5684 -104.374 44.6729 7.40448 -3.60519 -4.93327 -36.199 -5.24994 -16.0079 2.27773 -22.0512 -88.7543 -46.4076 79.8691 -18.7713 -9.28341 -20.1234 -11.3486 28.7852 -0.0517216 5.79852 -0.597575 -15.4499 -14.8017 0.460329 -2.84299 -11.148 0.388254 1.55619 
-6.71976 98.16 127.573 -156.853 -75.7138 -158.524 -174.824 -4.18855 84.1196 -26.4324 4.7679 -1.45832 78.2928 11.2177 -1.1687 13.8829 -12.4161 8.35728 174.993 17.585 88.623 -38.3515 -8.90878 -1.12497 61.7148 -1.15453 -0.843316 20.5995 2.11419 5.14492 0.496266 8.7401 -90.2947 9.39548 0.857121 -0.646985 -2.27537 0.827825 -0.684095 -24.8122 1.01193 -0.359464 -4.79956 1.01194 -0.359462 90.8503 -27.4679 -106.019 45.4707 7.01045 -3.89949 -4.99787 -37.2871 -5.28256 -16.8664 2.02094 -19.3643 -88.0477 -47.7085 81.2251 -18.03 -7.578 -11.2132 -12.0727 25.9148 -0.00459025 6.14438 -0.869958 -17.5262 -17.7418 0.621395 0.924026 -10.2654 0.647869 0.00917702 
-6.29895 98.571 122.594 -146.701 -74.9315 -148.694 -175.48 -0.952401 83.2514 -24.8295 2.50309 -1.50463 75.0207 8.326 -0.927991 12.3679 -12.7909 7.47258 175.345 14.4532 86.4652 -56.1467 -11.6801 -3.70372 62.6672 -2.13325 -1.28154 20.9548 1.91681 5.29005 0.885275 8.62437 -90.2384 9.62963 1.65731 -0.601131 -2.04043 1.62926 -0.673516 -24.584 1.76133 -0.0751064 -4.5714 1.76133 -0.0751091 90.0748 -26.8629 -107.862 45.1725 7.34309 -3.07946 -5.02326 -37.7103 -5.29584 -17.4393 2.27368 -20.5579 -86.6953 -47.9865 83.3578 -19.0366 -6.68951 -1.22388 -12.0681 25.7294 -0.192791 5.3894 -0.908313 -18.5508 -19.7317 0.674926 2.89924 -8.72099 0.832811 -1.02827 
-6.46696 98.197 118.108 -141.209 -74.4645 -144.797 -174.917 2.71537 82.8073 -25.2572 1.78257 -2.87136 72.4172 6.13329 -1.53216 10.691 -12.5225 5.53797 174.573 5.52087 82.8003 -62.6522 -15.7936 -5.87654 62.4646 -2.32268 -1.54723 22.3283 0.993055 6.44236 1.28808 8.54278 -89.9338 9.7909 2.5976 -0.0753716 -1.87744 2.59176 -0.189708 -24.4324 2.50008 0.709302 -4.41974 2.50008 0.709301 90.4064 -26.8399 -107.184 45.7459 7.16228 -2.90856 -5.1041 -39.017 -5.33894 -18.1973 2.46904 -21.134 -86.3775 -48.2867 83.8951 -19.2633 -9.37903 4.43837 -11.2205 27.3533 -0.154594 3.98194 -0.610621 -18.2834 -20.0441 0.395824 2.00913 -8.84893 0.532015 -1.11446 
-7.22047 97.8727 112.546 -139.221 -74.6725 -143.606 -174.528 6.77505 83.2714 -24.7843 2.40778 -3.53174 69.071 4.28946 -1.69846 7.45825 -14.1122 4.97674 173.162 -5.42718 81.8516 -55.6427 -23.1258 -7.51637 66.06 -5.05159 -2.94988 23.1199 0.131977 8.41414 1.51812 8.52462 -89.7873 9.82439 3.1225 0.172199 -1.8428 3.12704 0.034454 -24.4052 2.92625 1.10347 -4.39257 2.92626 1.10347 90.8088 -25.9559 -106.701 47.2392 6.32205 -3.78486 -5.06786 -38.4356 -5.31942 -17.6096 2.20635 -19.9743 -86.381 -49.921 84.1462 -18.8386 -11.4597 8.29949 -10.6365 25.4697 -0.00970664 3.79252 -0.465821 -15.9428 -20.4532 0.0502529 1.43316 -8.83789 0.186201 -1.51713 
